#!OML:ASF X:\für Bonn\!DataBase\2005_08_12_Daniel\c3d\Daniel.ASF
:FULLY-SPECIFIED
:DEGREES
18
root -0.816583 17.1046 -1.84382 506.749 95.652 -2010.94
lowerback 17.1494 -1.42655 1.83576
upperback 0.315804 -1.51752 -0.454462
thorax -9.3643 -0.797616 -1.16116
lowerneck -6.40105 1.39403 -5.17458
upperneck -1.78546 2.27068 -0.14734
head 0.455936 1.18359 0.865908
rclavicle 1.16786e-014 -3.97569e-016
rhumerus -11.1273 35.4837 -100.127
rradius 73.3617
rwrist 8.6616
rhand -39.4653 31.791
rfingers 7.12502
rthumb -12.4523 2.18193
lclavicle 1.16786e-014 -3.97569e-016
lhumerus -13.6285 -17.565 91.4298
lradius 83.5988
lwrist 8.45631
lhand -18.4307 -14.2209
lfingers 7.12502
lthumb 7.85464 15.6132
rfemur -10.7547 4.30559 23.0021
rtibia 53.2991
rfoot -12.658 4.65438
rtoes -10.9386
lfemur -12.3483 -6.64282 -17.427
ltibia 60.298
lfoot -22.6421 -0.495308
ltoes -13.9702
19
root -0.475992 17.3738 -1.84781 507.801 95.4963 -2009.97
lowerback 15.8073 -1.46098 1.88856
upperback -0.0569371 -1.60562 -0.562849
thorax -9.02367 -0.854238 -1.30559
lowerneck -5.77861 1.45888 -5.41015
upperneck -0.977624 2.33001 0.0280017
head 0.598485 1.19399 0.962594
rclavicle 2.08227e-014 8.74653e-015
rhumerus -12.0461 36.2686 -100.973
rradius 75.2975
rwrist 7.80484
rhand -38.6133 31.321
rfingers 7.12502
rthumb -11.6308 1.66382
lclavicle 2.08227e-014 8.74653e-015
lhumerus -13.5042 -18.4984 91.2258
lradius 85.5953
lwrist 8.10555
lhand -17.9067 -14.4586
lfingers 7.12502
lthumb 8.36036 15.356
rfemur -8.85887 4.36346 22.8817
rtibia 50.6382
rfoot -7.81927 3.34971
rtoes -10.6453
lfemur -10.4324 -6.62805 -17.7645
ltibia 57.5731
lfoot -18.1238 -0.772841
ltoes -13.503
20
root -0.138244 17.6465 -1.85319 509.149 95.3804 -2008.68
lowerback 14.5587 -1.47557 1.96523
upperback -0.413252 -1.65923 -0.684599
thorax -8.71252 -0.894201 -1.48606
lowerneck -5.20203 1.5276 -5.70116
upperneck -0.177183 2.39997 0.268479
head 0.745007 1.2115 1.0906
rclavicle -2.70844e-014 6.75868e-015
rhumerus -12.8446 37.0507 -101.712
rradius 77.1488
rwrist 6.89755
rhand -37.6152 30.9264
rfingers 7.12502
rthumb -10.6681 1.2172
lclavicle -2.70844e-014 6.75868e-015
lhumerus -13.3794 -19.4708 90.9653
lradius 87.5366
lwrist 7.85428
lhand -17.3785 -14.5775
lfingers 7.12502
lthumb 8.87012 15.216
rfemur -7.07179 4.58983 22.8319
rtibia 48.0735
rfoot -2.631 1.75251
rtoes -10.4565
lfemur -8.71077 -6.59832 -18.1012
ltibia 55.0592
lfoot -12.9626 -1.10809
ltoes -13.1988
21
root 0.192441 17.914 -1.86025 510.851 95.3158 -2007.1
lowerback 13.3873 -1.48544 2.04057
upperback -0.829316 -1.7028 -0.794814
thorax -8.50504 -0.929411 -1.6543
lowerneck -4.63385 1.61944 -5.98179
upperneck 0.659739 2.5001 0.506129
head 0.903527 1.24382 1.21777
rclavicle 3.58806e-014 7.95139e-016
rhumerus -13.6134 37.9221 -102.38
rradius 78.8683
rwrist 6.07849
rhand -36.6918 30.7098
rfingers 7.12502
rthumb -9.77732 0.956727
lclavicle 3.58806e-014 7.95139e-016
lhumerus -13.3209 -20.3749 90.6828
lradius 89.2701
lwrist 7.71717
lhand -17.0148 -14.9405
lfingers 7.12502
lthumb 9.22104 14.8379
rfemur -5.59209 4.98916 22.846
rtibia 45.8168
rfoot 2.62208 -0.0133871
rtoes -10.4691
lfemur -7.35553 -6.49062 -18.405
ltibia 52.9178
lfoot -7.39754 -1.56183
ltoes -13.1303
22
root 0.514544 18.1729 -1.86901 513.011 95.3037 -2005.2
lowerback 12.2825 -1.45795 2.10364
upperback -1.37562 -1.69341 -0.877072
thorax -8.46878 -0.939769 -1.79436
lowerneck -4.01856 1.71342 -6.2248
upperneck 1.55281 2.60009 0.672663
head 1.07271 1.27484 1.31634
rclavicle 3.23957e-015 7.95139e-015
rhumerus -14.5187 38.7297 -102.983
rradius 80.7255
rwrist 5.39481
rhand -35.7621 30.4976
rfingers 7.12502
rthumb -8.88027 0.70447
lclavicle 3.23957e-015 7.95139e-015
lhumerus -13.4489 -21.3097 90.5032
lradius 90.8705
lwrist 7.64911
lhand -16.7186 -15.4879
lfingers 7.12502
lthumb 9.5069 14.2776
rfemur -4.57909 5.52604 22.8734
rtibia 43.9804
rfoot 7.63841 -1.77967
rtoes -10.3104
lfemur -6.46201 -6.29601 -18.6665
ltibia 51.2239
lfoot -1.83843 -2.25812
ltoes -12.517
23
root 0.828109 18.4273 -1.87938 515.398 95.3055 -2003.32
lowerback 11.0506 -1.43704 2.17608
upperback -2.02327 -1.68915 -0.939124
thorax -8.46471 -0.952789 -1.91853
lowerneck -3.36375 1.83025 -6.48393
upperneck 2.4081 2.72786 0.862189
head 1.22186 1.32162 1.42483
rclavicle 1.11195e-014 1.98785e-015
rhumerus -15.587 39.4443 -103.598
rradius 82.6774
rwrist 4.99908
rhand -34.8962 30.3377
rfingers 7.12502
rthumb -8.04457 0.510834
lclavicle 1.11195e-014 1.98785e-015
lhumerus -13.6617 -22.1961 90.3106
lradius 92.4063
lwrist 7.74038
lhand -16.624 -16.0655
lfingers 7.12502
lthumb 9.59818 13.6958
rfemur -4.20669 6.07411 22.8895
rtibia 42.6249
rfoot 12.1481 -3.39
rtoes -10.4652
lfemur -6.16667 -5.96678 -18.8492
ltibia 50.0187
lfoot 3.40386 -3.25016
ltoes -11.3964
24
root 1.13304 18.6715 -1.89154 517.616 95.3499 -2001.78
lowerback 9.69282 -1.38394 2.30515
upperback -2.66986 -1.63152 -0.99003
thorax -8.38075 -0.939876 -2.07451
lowerneck -2.87356 1.91764 -6.73204
upperneck 3.29551 2.82906 1.04076
head 1.41168 1.35511 1.53146
rclavicle 2.67117e-015 -8.74653e-015
rhumerus -16.5433 40.0103 -104.041
rradius 84.524
rwrist 4.75809
rhand -34.1363 30.319
rfingers 7.12502
rthumb -7.31115 0.465309
lclavicle 2.67117e-015 -8.74653e-015
lhumerus -13.8772 -23.1566 90.0958
lradius 93.9866
lwrist 7.96285
lhand -16.613 -16.6548
lfingers 7.12502
lthumb 9.60873 13.1061
rfemur -4.31582 6.59434 22.9121
rtibia 41.7107
rfoot 15.9841 -4.76179
rtoes -10.6538
lfemur -6.32423 -5.54554 -18.95
ltibia 49.2928
lfoot 8.14728 -4.41152
ltoes -10.0462
25
root 1.43088 18.9037 -1.90464 520.068 95.4124 -1999.97
lowerback 8.37522 -1.33404 2.38791
upperback -3.19363 -1.579 -1.01827
thorax -8.1814 -0.922076 -2.17853
lowerneck -2.62175 2.00576 -7.04752
upperneck 4.11554 2.95092 1.22435
head 1.62146 1.39968 1.65642
rclavicle -3.77691e-015 5.1684e-015
rhumerus -17.2347 40.6558 -104.243
rradius 86.256
rwrist 4.51387
rhand -33.5576 30.3434
rfingers 7.12502
rthumb -6.75254 0.47111
lclavicle -3.77691e-015 5.1684e-015
lhumerus -14.004 -24.0307 89.7564
lradius 95.6357
lwrist 8.33684
lhand -16.6593 -17.1521
lfingers 7.12502
lthumb 9.56408 12.6108
rfemur -4.60874 7.00729 22.8723
rtibia 41.1575
rfoot 19.1184 -5.74734
rtoes -11.4607
lfemur -6.73631 -5.07596 -19.0784
ltibia 48.9912
lfoot 12.2644 -5.68278
ltoes -9.3469
26
root 1.72195 19.1203 -1.91768 522.223 95.485 -1998.15
lowerback 7.32843 -1.2759 2.48214
upperback -3.48857 -1.51195 -1.07821
thorax -7.89106 -0.894486 -2.32055
lowerneck -2.63483 2.05945 -7.32652
upperneck 4.87617 3.04323 1.42553
head 1.86227 1.43096 1.78611
rclavicle 1.49089e-016 0
rhumerus -17.5564 41.2914 -104.16
rradius 87.9184
rwrist 4.14711
rhand -32.985 30.3691
rfingers 7.12502
rthumb -6.19972 0.479815
lclavicle 1.49089e-016 0
lhumerus -13.8535 -24.9513 89.2722
lradius 97.1178
lwrist 8.85738
lhand -16.7248 -17.576
lfingers 7.12502
lthumb 9.50091 12.1898
rfemur -4.71193 7.25626 22.8302
rtibia 40.8772
rfoot 21.5731 -6.39696
rtoes -12.1148
lfemur -6.98387 -4.55296 -19.2445
ltibia 49.069
lfoot 15.293 -7.25015
ltoes -10.0075
27
root 2.00819 19.3234 -1.93098 524.075 95.5655 -1996.35
lowerback 6.60202 -1.22512 2.54372
upperback -3.59416 -1.45408 -1.13244
thorax -7.58212 -0.867298 -2.43136
lowerneck -2.89277 2.10925 -7.51377
upperneck 5.59347 3.14852 1.55593
head 2.13641 1.46903 1.88283
rclavicle 6.18717e-015 -1.39149e-014
rhumerus -17.6669 41.9494 -103.915
rradius 89.4791
rwrist 3.69356
rhand -32.4771 30.3498
rfingers 7.12502
rthumb -5.70937 0.446766
lclavicle 6.18717e-015 -1.39149e-014
lhumerus -13.5588 -25.8086 88.6777
lradius 98.5134
lwrist 9.48965
lhand -16.7808 -17.9611
lfingers 7.12502
lthumb 9.44683 11.8072
rfemur -4.58596 7.30838 22.7973
rtibia 40.8146
rfoot 23.3922 -6.65149
rtoes -10.96
lfemur -7.06193 -3.98808 -19.4481
ltibia 49.4669
lfoot 17.2068 -8.59616
ltoes -12.0665
28
root 2.27811 19.5072 -1.94434 525.519 95.6489 -1994.8
lowerback 6.25213 -1.17637 2.57624
upperback -3.67516 -1.3919 -1.14307
thorax -7.46303 -0.837455 -2.47388
lowerneck -3.15374 2.15374 -7.82666
upperneck 6.2337 3.24661 1.79317
head 2.38656 1.50489 2.0379
rclavicle 1.4387e-014 1.51076e-014
rhumerus -17.8343 42.6144 -103.585
rradius 91.0552
rwrist 3.09739
rhand -31.982 30.3319
rfingers 7.12502
rthumb -5.23133 0.416506
lclavicle 1.4387e-014 1.51076e-014
lhumerus -13.2468 -26.5853 88.138
lradius 99.8084
lwrist 10.1751
lhand -16.6779 -18.2274
lfingers 7.12502
lthumb 9.54611 11.5364
rfemur -4.40959 7.26863 22.8112
rtibia 40.9105
rfoot 24.7021 -6.75352
rtoes -9.81525
lfemur -7.16665 -3.31842 -19.613
ltibia 50.1469
lfoot 18.5442 -9.69186
ltoes -12.5832
